# xmcd
#
# Track frame offsets:
#	150
#	12179
#	24383
#	36823
#	49610
#	64459
#	77629
#	91487
#	105000
#	117709
#	131116
#	146070
#	159932
#	173315
#	186059
#	199269
#	211964
#	225587
#	238606
#	253413
#	267775
#	279305
#	293014
#	306303
#	319215
#
# Disc length: 4448 seconds
#
# Revision: 1
# Processed by: cddbd v1.5.1PL0 Copyright (c) Steve Scherf et al.
# Submitted via: audiograbber 1.83.01
#
DISCID=5e115e19
DTITLE=Various Artist - Memphis Shakedown - More Jug Band Classics - CD 3
DYEAR=2005
DGENRE=Blues
TTITLE0=Noah Lewis's Jug Band - Ticket Agent Blues
TTITLE1=Noah Lewis's Jug Band - New Minglewood Blues
TTITLE2=Noah Lewis's Jug Band - Selling the Jelly
TTITLE3=Noah Lewis's Jug Band - Bad Luck's My Buddy
TTITLE4=Noah Lewis - Chickasaw Special
TTITLE5=Noah Lewis - Devil in the Woodpile
TTITLE6=Noah Lewis - Like I Want to Be
TTITLE7=Jed Davenport - How Long, How Long Blues
TTITLE8=Jed Davenport - Cow Cow Blues
TTITLE9=Jed Davenport - Beale Street Breakdown
TTITLE10=Jed Davenport - You Ought to Move Out of Town
TTITLE11=Jed Davenport - The Dirty Dozen
TTITLE12=Jed Davenport - Jug Blues
TTITLE13=Jed Davenport - Save Me Some
TTITLE14=Jed Davenport - Piccolo Blues
TTITLE15=Beale Street Rounders - I'm Sittin' on Top of the World
TTITLE16=Beale Street Rounders - Talkin' 'bout Yo-Yo
TTITLE17=Memphis Minnie - Bumble Bee Blues
TTITLE18=Memphis Minnie - Meningitis Blues
TTITLE19=The Delta Boys - Don't You Want to Know
TTITLE20=The Delta Boys - You Shoudn't Do That
TTITLE21=The Delta Boys - When the Saints Go Marching In
TTITLE22=The Delta Boys - Black Gal Swing
TTITLE23=The Delta Boys - Get Up and Go
TTITLE24=The Delta Boys - Every Time My Heart Beats
EXTD=
EXTT0=
EXTT1=
EXTT2=
EXTT3=
EXTT4=
EXTT5=
EXTT6=
EXTT7=
EXTT8=
EXTT9=
EXTT10=
EXTT11=
EXTT12=
EXTT13=
EXTT14=
EXTT15=
EXTT16=
EXTT17=
EXTT18=
EXTT19=
EXTT20=
EXTT21=
EXTT22=
EXTT23=
EXTT24=
PLAYORDER=
